<?xml version="1.0" encoding="utf-8"?>
<!-- Generator: Adobe Illustrator 19.2.1, SVG Export Plug-In . SVG Version: 6.00 Build 0)  -->
<svg version="1.1" id="Capa_1" xmlns="http://www.w3.org/2000/svg" xmlns:xlink="http://www.w3.org/1999/xlink" x="0px" y="0px"
	 viewBox="0 0 46 26.667" style="enable-background:new 0 0 46 26.667;" xml:space="preserve">
<style type="text/css">
	.st0{fill:#FFFFFF;}
</style>
<g>
	<path class="st0" d="M3,26.667c-0.752,0-1.504-0.28-2.086-0.844c-1.191-1.152-1.222-3.051-0.07-4.242l20-20.667
		c1.153-1.19,3.054-1.221,4.242-0.069c1.191,1.152,1.222,3.051,0.07,4.242l-20,20.667C4.567,26.361,3.784,26.667,3,26.667z"/>
</g>
<g>
	<path class="st0" d="M43,26.667c-0.784,0-1.567-0.306-2.156-0.914l-20-20.667c-1.151-1.191-1.121-3.09,0.07-4.242
		c1.188-1.152,3.088-1.122,4.242,0.069l20,20.667c1.151,1.191,1.121,3.09-0.07,4.242C44.504,26.387,43.752,26.667,43,26.667z"/>
</g>
</svg>
